<svg width="25" height="27" viewBox="0 0 25 27" fill="none" xmlns="http://www.w3.org/2000/svg">
<path d="M16.6959 6.02539H10.6088C10.4474 6.02539 10.2925 6.08954 10.1783 6.20371C10.0641 6.31789 10 6.47275 10 6.63422V12.4166C10 12.7532 10.2722 13.0254 10.6088 13.0254H16.6959C16.8572 13.0252 17.0119 12.961 17.126 12.8468C17.24 12.7327 17.3041 12.5779 17.3041 12.4166V6.63422C17.3041 6.47286 17.24 6.3181 17.126 6.20394C17.0119 6.08978 16.8572 6.02556 16.6959 6.02539Z" fill="#FFBC44"/>
<path d="M16.6959 6.02539H10.6088C10.4474 6.02539 10.2925 6.08954 10.1783 6.20371C10.0641 6.31789 10 6.47275 10 6.63422V8.15599C9.99992 8.07601 10.0156 7.99681 10.0462 7.9229C10.0767 7.849 10.1216 7.78185 10.1781 7.72529C10.2347 7.66874 10.3018 7.6239 10.3757 7.59333C10.4496 7.56276 10.5289 7.54707 10.6088 7.54716H16.6959C16.7758 7.54716 16.8549 7.56291 16.9288 7.59351C17.0026 7.62412 17.0697 7.66898 17.1261 7.72552C17.1826 7.78206 17.2274 7.84919 17.2579 7.92305C17.2885 7.99691 17.3041 8.07607 17.3041 8.15599V6.63422C17.3041 6.47286 17.24 6.3181 17.126 6.20394C17.0119 6.08978 16.8572 6.02556 16.6959 6.02539Z" fill="#FFDDA1"/>
<path d="M22.1741 20.0251L22.4782 16.3727H24V14.2428C24 13.4356 23.6793 12.6614 23.1086 12.0906C22.5378 11.5199 21.7637 11.1992 20.9565 11.1992C20.1493 11.1992 19.3752 11.5199 18.8044 12.0906C18.2336 12.6614 17.913 13.4356 17.913 14.2428V16.3727H19.4347L19.7395 20.0251H22.1741Z" fill="#66E1FF"/>
<path d="M20.9565 11.1992C20.1493 11.1992 19.3752 11.5199 18.8044 12.0906C18.2336 12.6614 17.913 13.4356 17.913 14.2428V15.7849C17.913 14.9777 18.2336 14.2036 18.8044 13.6328C19.3752 13.062 20.1493 12.7414 20.9565 12.7414C21.7637 12.7414 22.5378 13.062 23.1086 13.6328C23.6793 14.2036 24 14.9777 24 15.7849V14.2421C23.9998 13.435 23.6791 12.6611 23.1083 12.0904C22.5376 11.5198 21.7636 11.1992 20.9565 11.1992Z" fill="#C2F3FF"/>
<path d="M22.1741 20.0251L22.4782 16.3727H24V14.2428C24 13.4356 23.6793 12.6614 23.1086 12.0906C22.5378 11.5199 21.7637 11.1992 20.9565 11.1992C20.1493 11.1992 19.3752 11.5199 18.8044 12.0906C18.2336 12.6614 17.913 13.4356 17.913 14.2428V16.3727H19.4347L19.7395 20.0251H22.1741Z" stroke="#191919" stroke-linecap="round" stroke-linejoin="round"/>
<path d="M23.0629 7.8511H18.8514C18.9285 7.34778 19.1833 6.8887 19.5696 6.55701C19.956 6.22533 20.4483 6.04297 20.9575 6.04297C21.4667 6.04297 21.959 6.22533 22.3454 6.55701C22.7317 6.8887 22.9858 7.34778 23.0629 7.8511Z" fill="#66E1FF"/>
<path d="M23.0869 8.1563C23.0773 8.7149 22.8486 9.24736 22.4501 9.63898C22.0517 10.0306 21.5153 10.25 20.9567 10.25C20.398 10.25 19.8616 10.0306 19.4632 9.63898C19.0647 9.24736 18.8361 8.7149 18.8264 8.1563C18.8247 8.05429 18.8328 7.95272 18.8506 7.85156H23.0627C23.0797 7.95229 23.0878 8.05387 23.0869 8.1563Z" fill="#FFDDA1"/>
<path d="M18.8513 7.84961H17.6094" stroke="#191919" stroke-linecap="round" stroke-linejoin="round"/>
<path d="M12.4353 6V8.76494C12.4354 8.82136 12.4512 8.87664 12.4809 8.9246C12.5106 8.97257 12.5531 9.01132 12.6035 9.03652C12.654 9.06173 12.7105 9.07239 12.7667 9.06733C12.8229 9.06226 12.8766 9.04166 12.9217 9.00783L13.653 8.46084L14.3836 9.00911C14.4288 9.0429 14.4826 9.06346 14.5388 9.06847C14.5951 9.07348 14.6517 9.06276 14.7022 9.0375C14.7527 9.01224 14.7952 8.97343 14.8249 8.92542C14.8547 8.8774 14.8705 8.82206 14.8706 8.76557V6H12.4353Z" fill="white"/>
<path d="M17.3041 6.93832V6.63422C17.3041 6.47286 17.24 6.3181 17.126 6.20394C17.0119 6.08978 16.8572 6.02556 16.6959 6.02539H10.6088C10.4474 6.02539 10.2925 6.08954 10.1783 6.20371C10.0641 6.31789 10 6.47275 10 6.63422V12.4166C9.99992 12.4965 10.0156 12.5757 10.0462 12.6496C10.0767 12.7235 10.1216 12.7907 10.1781 12.8473C10.2347 12.9038 10.3018 12.9486 10.3757 12.9792C10.4496 13.0098 10.5289 13.0255 10.6088 13.0254H15.7823M23.0628 7.85126H18.8513C18.9284 7.34793 19.1831 6.88885 19.5695 6.55717C19.9558 6.22548 20.4482 6.04313 20.9574 6.04313C21.4665 6.04313 21.9589 6.22548 22.3452 6.55717C22.7316 6.88885 22.9857 7.34793 23.0628 7.85126ZM23.0628 7.85126H18.8507C18.8328 7.95241 18.8247 8.05399 18.8264 8.15599C18.8361 8.71459 19.0648 9.24705 19.4632 9.63867C19.8617 10.0303 20.398 10.2497 20.9567 10.2497C21.5154 10.2497 22.0517 10.0303 22.4502 9.63867C22.8486 9.24705 23.0773 8.71459 23.087 8.15599C23.0878 8.05356 23.0798 7.95198 23.0628 7.85126Z" stroke="#191919" stroke-linecap="round" stroke-linejoin="round"/>
<path d="M12.4353 6V8.76494C12.4354 8.82136 12.4512 8.87664 12.4809 8.9246C12.5106 8.97257 12.5531 9.01132 12.6035 9.03652C12.654 9.06173 12.7105 9.07239 12.7667 9.06733C12.8229 9.06226 12.8766 9.04166 12.9217 9.00783L13.653 8.46084L14.3836 9.00911C14.4288 9.0429 14.4826 9.06346 14.5388 9.06847C14.5951 9.07348 14.6517 9.06276 14.7022 9.0375C14.7527 9.01224 14.7952 8.97343 14.8249 8.92542C14.8547 8.8774 14.8705 8.82206 14.8706 8.76557V6H12.4353Z" stroke="#191919" stroke-linecap="round" stroke-linejoin="round"/>
</svg>
